<svg width="572" height="127" viewBox="0 0 572 127" fill="none" xmlns="http://www.w3.org/2000/svg">
<path d="M29.7634 19.5328C33.1076 18.3623 35.3928 14.7952 35.3928 11.1723C35.3928 8.44119 34.3338 6.04452 32.2158 4.038C30.0978 1.97574 27.1437 0.972484 23.3537 0.972484H4.06878V42.1619H24.3012C28.2585 42.1619 31.4355 40.9914 33.8879 38.7062C36.3403 36.421 37.5665 33.5227 37.5665 30.0113C37.5665 24.8835 34.8354 20.8147 29.7634 19.5328ZM21.4029 9.77887C23.7995 9.77887 25.193 11.3952 25.193 13.2345C25.193 15.1853 23.8553 16.746 20.957 16.746H14.2686V9.77887H21.4029ZM14.2686 33.244V25.0507H22.2947C25.2487 25.0507 26.8651 26.89 26.8651 29.1752C26.8651 31.349 25.3602 33.244 22.0717 33.244H14.2686ZM42.1386 28.7293C42.1386 37.8144 47.7123 42.9422 56.9089 42.9422C66.1054 42.9422 71.7348 37.8144 71.7348 28.7293V11.3952H61.8694V28.8408C61.8694 31.9063 59.9744 33.9686 56.9089 33.9686C53.9548 33.9686 52.004 31.9063 52.004 28.8408V11.3952H42.1386V28.7293ZM92.798 29.0638L85.9982 11.3952H74.6836L88.0604 41.6602L87.8932 42.0504C86.3883 45.0044 84.4375 46.5093 81.9851 46.5093C80.7032 46.5093 79.3655 46.1749 77.9721 45.4503L76.077 53.5321C77.9164 54.7026 80.1458 55.26 82.7097 55.26C89.844 55.26 94.2472 50.7453 97.5914 42.2176L109.519 11.3952H98.8733L92.798 29.0638ZM113.829 32.4637C110.708 32.4637 108.2 34.8046 108.2 37.9259C108.2 40.5455 110.43 42.8307 112.938 42.8307H113.049C112.325 44.1684 110.652 45.7847 109.482 46.6765C108.925 47.1782 108.089 47.847 106.918 48.7388L109.705 52.4174C116.338 48.0142 119.626 43.4438 119.626 38.7619C119.626 35.139 117.174 32.4637 113.829 32.4637ZM158.664 42.775C162.509 42.775 166.021 41.9947 169.198 40.3783C172.375 38.7619 174.939 36.6997 176.834 34.1915L169.922 27.5589C166.968 31.0703 163.401 32.8538 159.332 32.8538C156.211 32.8538 153.591 31.7948 151.418 29.6769C149.3 27.5031 148.241 24.8278 148.241 21.6508C148.241 18.3623 149.3 15.6312 151.418 13.4575C153.591 11.2838 156.211 10.2248 159.388 10.2248C163.122 10.2248 166.578 11.9526 169.755 15.3525L176.388 8.38546C172.598 3.42489 166.076 0.247906 158.719 0.247906C152.755 0.247906 147.739 2.25443 143.615 6.3232C139.546 10.3362 137.484 15.464 137.484 21.7065C137.484 27.8933 139.49 32.9653 143.559 36.9226C147.628 40.8242 152.644 42.775 158.664 42.775ZM190.537 42.1619V28.8965C190.537 22.9885 192.822 20.0344 197.337 20.0344C198.619 20.0344 199.957 20.2574 201.406 20.759L202.186 11.3952C200.96 10.8379 199.678 10.5592 198.34 10.5592C194.829 10.5592 192.098 12.1198 190.147 15.1853V11.3952H180.727V42.1619H190.537ZM235.662 25.9982C235.662 21.2606 234.157 17.4705 231.203 14.7394C228.249 12.0083 224.459 10.6149 219.889 10.6149C215.04 10.6149 211.083 12.1755 208.017 15.2411C204.951 18.3066 203.447 22.1524 203.447 26.7786C203.447 31.2932 204.896 35.0833 207.85 38.2046C210.804 41.2701 214.984 42.8307 220.446 42.8307C225.574 42.8307 230.089 41.4373 234.046 38.5947L230.2 31.9621C227.358 33.8571 224.292 34.8046 220.892 34.8046C216.991 34.8046 214.482 33.1883 213.368 29.9555H235.328C235.551 28.5621 235.662 27.2802 235.662 25.9982ZM219.889 18.4738C223.177 18.4738 225.463 20.2574 226.299 23.2114H213.256C214.315 20.0344 216.489 18.4738 219.889 18.4738ZM263.124 14.1821C260.615 11.7854 257.606 10.6149 254.038 10.6149C249.691 10.6149 246.068 12.1198 243.226 15.1853C240.383 18.1951 238.99 22.0409 238.99 26.6671C238.99 31.2932 240.383 35.139 243.226 38.2603C246.068 41.3816 249.635 42.9422 254.038 42.9422C257.606 42.9422 260.615 41.7717 263.124 39.4865V42.1619H272.376V11.3952H263.124V14.1821ZM263.012 26.7228C263.012 28.7293 262.343 30.4572 260.95 31.8506C259.556 33.244 257.884 33.9686 255.878 33.9686C253.871 33.9686 252.199 33.244 250.806 31.8506C249.468 30.4572 248.799 28.7293 248.799 26.7228C248.799 24.772 249.468 23.0999 250.806 21.7065C252.143 20.3131 253.816 19.5885 255.878 19.5885C257.884 19.5885 259.556 20.3131 260.95 21.7065C262.343 23.0999 263.012 24.772 263.012 26.7228ZM299.884 32.5752C298.101 33.5227 296.485 33.9686 295.035 33.9686C292.416 33.9686 291.134 32.3522 291.134 29.0638V19.5328H300.776V11.3952H291.134V0.470854H281.38V11.3952H276.587V19.5328H281.268V30.2342C281.268 38.7062 285.059 42.9422 292.694 42.9422C296.373 42.9422 299.662 42.1061 302.504 40.434L299.884 32.5752ZM336.195 25.9982C336.195 21.2606 334.69 17.4705 331.736 14.7394C328.782 12.0083 324.992 10.6149 320.422 10.6149C315.573 10.6149 311.615 12.1755 308.55 15.2411C305.484 18.3066 303.979 22.1524 303.979 26.7786C303.979 31.2932 305.429 35.0833 308.383 38.2046C311.337 41.2701 315.517 42.8307 320.979 42.8307C326.107 42.8307 330.622 41.4373 334.579 38.5947L330.733 31.9621C327.89 33.8571 324.825 34.8046 321.425 34.8046C317.523 34.8046 315.015 33.1883 313.901 29.9555H335.861C336.084 28.5621 336.195 27.2802 336.195 25.9982ZM320.422 18.4738C323.71 18.4738 325.995 20.2574 326.831 23.2114H313.789C314.848 20.0344 317.022 18.4738 320.422 18.4738ZM385.453 32.9096C386.847 31.4047 388.352 29.4539 390.024 27.1687L384.171 22.2081C382.332 24.6048 380.994 26.2212 380.158 27.113C380.047 27.2244 379.768 27.5589 379.601 27.6703L373.526 22.2081L372.244 20.9819C378.04 17.9164 381.496 14.9624 381.496 9.83461C381.496 7.21499 380.437 4.92978 378.263 3.09048C376.09 1.19543 373.47 0.247906 370.349 0.247906C366.503 0.247906 363.493 1.36264 361.264 3.59211C359.09 5.82157 357.975 8.32972 357.975 11.1166C357.975 13.8476 358.755 16.523 360.372 19.0312C355.634 21.9852 353.238 25.8868 353.238 30.6244C353.238 34.0801 354.519 36.9784 357.139 39.3193C359.759 41.6045 363.326 42.775 367.729 42.775C372.355 42.775 376.48 41.3816 379.991 38.539L385.23 43.4438L390.748 37.6472L385.453 32.9096ZM369.791 7.66088C371.575 7.66088 372.69 8.88709 372.69 10.4477C372.69 12.287 370.962 13.569 367.395 15.2968C366.67 14.0149 366.28 12.7329 366.28 11.451C366.28 9.27724 367.618 7.66088 369.791 7.66088ZM368.286 34.4145C365.109 34.4145 363.047 32.3522 363.047 29.7326C363.047 28.0048 363.883 26.4441 365.5 25.1065L367.227 26.7228L373.804 32.8538C372.188 33.9128 370.349 34.4145 368.286 34.4145ZM17.5013 114.886C22.4619 114.886 26.4192 113.66 29.3732 111.208C32.3273 108.7 33.8321 105.578 33.8321 101.733C33.8321 96.772 31.2125 93.1491 25.9733 90.9197C24.9143 90.4738 23.2979 89.8607 21.2357 89.1361L17.6128 87.7984C15.4391 86.9624 14.3243 85.9591 14.3243 84.7329C14.3243 83.228 15.8849 82.0576 18.7275 82.0576C21.8488 82.0576 25.9175 83.451 28.37 85.4575L33.219 77.5429C29.0388 74.0872 24.1897 72.3594 18.5603 72.3594C14.0456 72.3594 10.367 73.5856 7.52445 75.9823C4.68188 78.3789 3.23273 81.4445 3.23273 85.0673C3.23273 89.805 5.51793 93.3721 10.0326 95.7688C11.2031 96.3819 12.9866 97.0507 15.2718 97.8868L18.9505 99.113C21.1799 99.949 22.2947 101.008 22.2947 102.29C22.2947 104.241 20.1767 105.3 17.6685 105.3C13.3211 105.3 9.41949 103.572 5.96382 100.116L0.724576 107.752C5.0163 112.49 10.6457 114.886 17.5013 114.886ZM69.5955 97.9982C69.5955 93.2606 68.0906 89.4705 65.1365 86.7394C62.1825 84.0083 58.3924 82.6149 53.822 82.6149C48.9729 82.6149 45.0156 84.1755 41.9501 87.2411C38.8846 90.3066 37.3797 94.1524 37.3797 98.7786C37.3797 103.293 38.8288 107.083 41.7829 110.205C44.7369 113.27 48.9172 114.831 54.3794 114.831C59.5071 114.831 64.0218 113.437 67.9791 110.595L64.1333 103.962C61.2907 105.857 58.2252 106.805 54.8253 106.805C50.9237 106.805 48.4156 105.188 47.3008 101.956H69.2611C69.484 100.562 69.5955 99.2802 69.5955 97.9982ZM53.822 90.4738C57.1105 90.4738 59.3957 92.2574 60.2317 95.2114H47.1893C48.2483 92.0344 50.4221 90.4738 53.822 90.4738ZM84.1258 71.6348H74.3161V114.162H84.1258V71.6348ZM100.128 71.6348H90.3186V114.162H100.128V71.6348ZM471.053 114.162V99.2244H487.718V89.582H471.053V82.7264H489.892V72.9725H460.63V114.162H471.053ZM499.755 80.6641C502.932 80.6641 505.384 78.2675 505.384 74.979C505.384 71.802 502.932 69.4053 499.755 69.4053C496.578 69.4053 494.07 71.802 494.07 74.979C494.07 78.2675 496.466 80.6641 499.755 80.6641ZM504.715 83.3952H494.85V114.162H504.715V83.3952ZM520.494 71.6348H510.684V114.162H520.494V71.6348ZM557.509 97.9982C557.509 93.2606 556.004 89.4705 553.05 86.7394C550.096 84.0083 546.306 82.6149 541.735 82.6149C536.886 82.6149 532.929 84.1755 529.863 87.2411C526.798 90.3066 525.293 94.1524 525.293 98.7786C525.293 103.293 526.742 107.083 529.696 110.205C532.65 113.27 536.831 114.831 542.293 114.831C547.421 114.831 551.935 113.437 555.893 110.595L552.047 103.962C549.204 105.857 546.139 106.805 542.739 106.805C538.837 106.805 536.329 105.188 535.214 101.956H557.174C557.397 100.562 557.509 99.2802 557.509 97.9982ZM541.735 90.4738C545.024 90.4738 547.309 92.2574 548.145 95.2114H535.103C536.162 92.0344 538.335 90.4738 541.735 90.4738ZM566.465 115.054C569.364 115.054 571.705 112.768 571.705 109.703C571.705 106.805 569.364 104.464 566.465 104.464C563.4 104.464 561.003 106.749 561.003 109.703C561.003 112.768 563.4 115.054 566.465 115.054Z" fill="white"/>
<path d="M134.361 114.886C138.541 114.886 142.108 113.604 144.951 111.096C147.793 108.588 149.577 105.077 150.246 100.562L154.37 72.9725H150.97L146.846 100.06C145.787 106.972 141.105 111.598 134.416 111.598C127.951 111.598 124.774 107.418 125.889 100.06L129.957 72.9725H126.557L122.433 100.283C121.708 104.798 122.489 108.365 124.662 110.985C126.836 113.604 130.069 114.886 134.361 114.886ZM161.149 114.162L163.601 97.7753C164.158 94.0409 165.552 91.3098 167.781 89.4705C170.011 87.6312 172.519 86.6837 175.25 86.6837C180.601 86.6837 183.443 90.3066 182.496 96.7163L179.876 114.162H183.22L185.84 96.5491C186.453 92.3131 185.84 89.0804 183.889 86.9066C181.994 84.6772 179.319 83.5624 175.863 83.5624C171.125 83.5624 167.112 85.6247 164.716 89.582L165.496 84.3428H162.263L157.804 114.162H161.149ZM198.676 79.6609C200.237 79.6609 201.575 78.4904 201.853 76.9298C202.076 75.2019 200.962 73.9757 199.345 73.9757C197.785 73.9757 196.391 75.1462 196.112 76.7068C195.889 78.3232 197.06 79.6609 198.676 79.6609ZM199.512 84.3428H196.168L191.709 114.162H195.053L199.512 84.3428ZM232.382 90.8639C230.598 86.3493 226.529 83.6182 221.011 83.6182C216.831 83.6182 213.208 85.0116 210.087 87.7984C207.022 90.5295 205.127 94.0967 204.513 98.4999C203.789 103.015 204.625 106.916 206.966 110.093C209.363 113.27 212.762 114.886 217.221 114.886C222.461 114.886 226.641 112.657 229.706 108.198L227.031 126.424H230.375L236.673 84.3428H233.329L232.382 90.8639ZM217.612 111.821C214.1 111.821 211.425 110.539 209.641 107.975C207.913 105.355 207.3 102.29 207.913 98.6671C208.471 95.1557 209.976 92.2574 212.428 90.0279C214.936 87.7984 217.779 86.6837 221.067 86.6837C224.579 86.6837 227.198 87.9099 228.926 90.3623C230.71 92.759 231.378 95.713 230.933 99.113C230.487 102.736 228.982 105.746 226.474 108.198C223.966 110.595 221.011 111.821 217.612 111.821ZM242.694 102.123C242.081 106.024 242.75 109.146 244.645 111.431C246.54 113.716 249.327 114.886 253.061 114.886C260.474 114.886 265.825 110.205 266.995 102.234L269.726 84.3428H266.382L263.707 101.844C262.759 108.087 258.858 111.765 253.284 111.765C247.933 111.765 245.091 108.142 246.038 102.178L248.713 84.3428H245.369L242.694 102.123ZM291.071 83.6182C286.668 83.6182 282.878 85.0116 279.812 87.8542C276.747 90.641 274.852 94.2639 274.183 98.7786C273.012 106.637 276.524 114.831 287.448 114.831C292.297 114.831 297.369 113.047 300.491 110.762L299.153 108.087C296.199 110.26 291.628 111.709 287.671 111.709C280.537 111.709 276.97 107.195 277.36 100.562H302.497C302.776 99.5031 302.999 98.7228 303.054 98.1097C303.668 93.6508 302.832 90.1394 300.546 87.5197C298.261 84.9001 295.14 83.6182 291.071 83.6182ZM290.904 86.6837C293.969 86.6837 296.31 87.687 298.038 89.6935C299.766 91.6443 300.323 94.2639 299.71 97.4966H277.806C279.422 90.8639 284.494 86.6837 290.904 86.6837ZM351.909 106.805L330.171 72.9725H328.722L322.591 114.162H325.991L331.063 80.6641L352.466 114.162H354.249L360.381 72.9725H356.981L351.909 106.805ZM368.882 114.162L371.78 94.9327H389.895L390.396 91.6443H372.226L374.511 76.2609H394.967L395.468 72.9725H371.613L365.482 114.162H368.882ZM404.09 114.162H407.49L413.175 76.2609H425.605L426.106 72.9725H397.736L397.235 76.2609H409.72L404.09 114.162ZM429.058 114.831C434.799 114.831 439.146 111.709 439.982 106.637C440.205 103.182 439.369 101.342 437.028 99.7261C436.192 99.113 435.524 98.7228 434.91 98.4441L432.402 97.2737L430.061 96.2147C427.33 94.877 425.993 93.4836 426.438 90.8639C426.884 88.3558 429.225 86.2935 433.015 86.2935C435.858 86.2935 437.976 87.5197 439.258 89.9722L441.71 88.3001C440.038 85.0116 437.196 83.3395 433.238 83.3395C427.888 83.3395 423.875 86.3493 423.206 90.8082C422.314 94.7098 425.268 97.1065 427.553 98.4441C428.278 98.8343 429.337 99.3359 430.619 99.8933C431.901 100.451 432.848 100.897 433.406 101.175C435.969 102.569 437.084 104.296 436.75 106.414C436.248 109.703 433.127 111.821 429.114 111.821C425.602 111.821 423.206 110.093 421.812 106.693L419.081 108.198C420.809 112.601 424.153 114.831 429.058 114.831Z" fill="#1EE0E1"/>
</svg>
