<svg width="360" height="40" viewBox="0 0 360 40" fill="none" xmlns="http://www.w3.org/2000/svg">
<path d="M2.50172 31.1619L5.98172 7.68186L14.8217 24.3619H15.4217L29.1817 7.64187L25.7017 31.1619H28.1417L32.5417 1.60186H31.4217L15.6617 20.7219L5.54172 1.60186H4.46172L0.0617188 31.1619H2.50172ZM44.9155 31.6819C48.0355 31.6819 50.7555 30.6019 53.1155 28.4819C55.4755 26.3619 56.9155 23.7219 57.3555 20.5619C57.7955 17.3619 57.1555 14.6819 55.3555 12.5219C53.5955 10.3219 51.1555 9.24186 47.9955 9.24186C44.8755 9.24186 42.1155 10.2819 39.7555 12.4019C37.3955 14.4819 35.9555 17.1219 35.5155 20.2819C35.0355 23.4419 35.6755 26.1619 37.4355 28.3619C39.2355 30.5619 41.7155 31.6819 44.9155 31.6819ZM44.9555 29.4819C42.5555 29.4819 40.6755 28.6019 39.3155 26.8819C37.9955 25.1219 37.5155 23.0019 37.8755 20.4819C38.2755 17.9219 39.4355 15.7619 41.3155 14.0419C43.1955 12.3219 45.3955 11.4419 47.8355 11.4419C50.2755 11.4419 52.1555 12.3219 53.4755 14.0419C54.8355 15.7619 55.3155 17.8819 54.9555 20.4019C54.5955 22.9219 53.4355 25.0819 51.5155 26.8419C49.6355 28.6019 47.4355 29.4819 44.9555 29.4819ZM66.6642 31.6419C70.7842 31.6419 73.9042 29.4019 74.5042 25.7619C74.6642 23.2819 74.0642 21.9619 72.3842 20.8019C71.7842 20.3619 71.3042 20.0819 70.8642 19.8819L69.0642 19.0419L67.3842 18.2819C65.4242 17.3219 64.4642 16.3219 64.7842 14.4419C65.1042 12.6419 66.7842 11.1619 69.5042 11.1619C71.5442 11.1619 73.0642 12.0419 73.9842 13.8019L75.7442 12.6019C74.5442 10.2419 72.5042 9.04186 69.6642 9.04186C65.8242 9.04186 62.9442 11.2019 62.4642 14.4019C61.8242 17.2019 63.9442 18.9219 65.5842 19.8819C66.1042 20.1619 66.8642 20.5219 67.7842 20.9219C68.7042 21.3219 69.3842 21.6419 69.7842 21.8419C71.6242 22.8419 72.4242 24.0819 72.1842 25.6019C71.8242 27.9619 69.5842 29.4819 66.7042 29.4819C64.1842 29.4819 62.4642 28.2419 61.4642 25.8019L59.5042 26.8819C60.7442 30.0419 63.1442 31.6419 66.6642 31.6419ZM93.0545 11.8819L93.3745 9.76186H84.5745L85.6945 2.20186H83.3345L82.1745 9.76186H78.3745L78.0545 11.8819H81.8145L80.0145 24.0419C79.3345 28.6819 81.1745 31.6419 85.4945 31.6419C87.6545 31.6419 89.6145 31.0419 91.3345 29.8419L90.4945 27.9219C88.9345 28.9219 87.3745 29.4419 85.8945 29.4419C83.1345 29.4419 81.8945 27.6019 82.4145 24.2819L84.2545 11.8819H93.0545ZM109.657 1.60186L105.257 31.1619H107.697L109.417 19.6819H115.457C118.937 19.6819 121.617 18.8419 123.497 17.1219C125.377 15.4019 126.497 13.2819 126.857 10.7219C127.217 8.24186 126.697 6.12186 125.337 4.32187C124.017 2.52186 121.777 1.60186 118.657 1.60186H109.657ZM124.417 10.5219C123.817 14.5619 120.697 17.4019 115.937 17.4019H109.737L111.737 3.92186H118.537C122.817 3.92186 125.017 6.68186 124.417 10.5219ZM137.572 31.6819C140.692 31.6819 143.412 30.6019 145.772 28.4819C148.132 26.3619 149.572 23.7219 150.012 20.5619C150.452 17.3619 149.812 14.6819 148.012 12.5219C146.252 10.3219 143.812 9.24186 140.652 9.24186C137.532 9.24186 134.772 10.2819 132.412 12.4019C130.052 14.4819 128.612 17.1219 128.172 20.2819C127.692 23.4419 128.332 26.1619 130.092 28.3619C131.892 30.5619 134.372 31.6819 137.572 31.6819ZM137.612 29.4819C135.212 29.4819 133.332 28.6019 131.972 26.8819C130.652 25.1219 130.172 23.0019 130.532 20.4819C130.932 17.9219 132.092 15.7619 133.972 14.0419C135.852 12.3219 138.052 11.4419 140.492 11.4419C142.932 11.4419 144.812 12.3219 146.132 14.0419C147.492 15.7619 147.972 17.8819 147.612 20.4019C147.252 22.9219 146.092 25.0819 144.172 26.8419C142.292 28.6019 140.092 29.4819 137.612 29.4819ZM167.24 9.28186C163.68 9.28186 160.76 10.7619 158.48 13.7619L159.08 9.76186H156.68L152.16 39.9619H154.56L156.52 26.5619C157.92 29.8019 160.8 31.7219 164.6 31.7219C167.6 31.7219 170.24 30.6419 172.44 28.5219C174.64 26.3619 175.96 23.7219 176.36 20.5619C176.76 17.4019 176.08 14.7619 174.32 12.5619C172.6 10.3619 170.24 9.28186 167.24 9.28186ZM173.96 20.4019C173.64 22.9619 172.6 25.1219 170.84 26.8419C169.08 28.5619 166.96 29.4419 164.52 29.4419C162.12 29.4419 160.24 28.5619 158.88 26.8419C157.56 25.0819 157.04 22.9619 157.4 20.4419C157.72 17.9219 158.76 15.8419 160.56 14.1219C162.36 12.4019 164.48 11.5219 166.92 11.5219C169.32 11.5219 171.16 12.3619 172.44 14.0819C173.76 15.7619 174.24 17.8819 173.96 20.4019ZM180.965 22.5219C180.525 25.3219 181.005 27.5619 182.365 29.2019C183.725 30.8419 185.725 31.6819 188.405 31.6819C193.725 31.6819 197.565 28.3219 198.405 22.6019L200.365 9.76186H197.965L196.045 22.3219C195.365 26.8019 192.565 29.4419 188.565 29.4419C184.725 29.4419 182.685 26.8419 183.365 22.5619L185.285 9.76186H182.885L180.965 22.5219ZM210.283 0.961863H207.883L203.363 31.1619H205.763L210.283 0.961863ZM232.43 14.0819C231.03 11.0419 228.19 9.24186 224.55 9.24186C221.55 9.24186 218.91 10.2419 216.67 12.2019C214.43 14.1619 213.07 16.7619 212.59 19.9619C212.11 23.2019 212.71 25.9619 214.39 28.2419C216.07 30.5219 218.43 31.6819 221.51 31.6819C225.19 31.6819 228.19 30.0819 230.55 26.8419L229.91 31.1619H232.23L235.43 9.76186H233.11L232.43 14.0819ZM221.87 29.4819C219.43 29.4819 217.55 28.5619 216.27 26.6819C215.03 24.8019 214.59 22.6019 215.03 20.0419C215.47 17.4819 216.59 15.4019 218.31 13.8419C220.07 12.2419 222.15 11.4419 224.55 11.4419C226.99 11.4419 228.83 12.3219 230.15 14.0419C231.47 15.7619 231.95 17.8819 231.59 20.3219C231.19 22.8819 230.07 25.0419 228.23 26.8419C226.43 28.6019 224.31 29.4819 221.87 29.4819ZM241.154 31.1619L242.914 19.3219C243.594 14.6419 246.394 11.4819 250.354 11.4819C251.114 11.4819 251.834 11.6019 252.554 11.8419L253.234 9.60186C252.354 9.32187 251.474 9.20186 250.594 9.20186C247.514 9.20186 245.234 10.5619 243.674 13.2419L244.234 9.76186H241.954L238.754 31.1619H241.154Z" fill="#1EE0E1"/>
<path d="M282.347 17.6419L268.667 1.60186H263.307V31.1619H270.627V15.3219L284.067 31.1619H289.707V1.60186H282.347V17.6419ZM303.013 31.1619V20.4419H314.973V13.5219H303.013V8.60186H316.533V1.60186H295.533V31.1619H303.013ZM326.451 31.1619H334.011V8.80186H342.171V1.60186H318.251V8.80186H326.451V31.1619ZM350.047 31.7619C352.967 31.7619 355.247 31.0819 356.967 29.7219C358.687 28.3219 359.527 26.5619 359.527 24.4019C359.527 21.8419 358.447 20.1219 355.767 18.8019C354.447 18.1219 352.687 17.4819 350.567 16.8819C349.247 16.5219 348.567 16.0019 348.567 15.2819C348.567 14.6019 349.407 14.0419 350.567 14.0419C352.287 14.0419 354.047 14.6819 355.887 15.9219L358.927 11.2819C356.567 9.36186 353.847 8.40187 350.687 8.40187C347.927 8.40187 345.687 9.04186 344.047 10.3619C342.407 11.6419 341.567 13.3219 341.567 15.4019C341.567 18.1219 342.927 20.1219 345.687 21.4019C346.207 21.6419 347.247 22.0019 348.727 22.5219C350.247 23.0419 351.047 23.2819 351.167 23.3219C351.967 23.6419 352.367 24.0419 352.367 24.5619C352.367 25.4819 351.567 25.9619 350.007 25.9619C347.727 25.9619 345.527 25.0419 343.407 23.2019L340.247 27.9619C342.927 30.4819 346.167 31.7619 350.047 31.7619Z" fill="white"/>
</svg>
